<mxfile host="app.diagrams.net" modified="2024-03-11T10:30:46.857Z" agent="Mozilla/5.0 (Windows NT 10.0; Win64; x64; rv:123.0) Gecko/20100101 Firefox/123.0" etag="WvneEe__LQclRgxlyzkm" version="23.1.5" type="github">
  <diagram name="第 1 页" id="EUbMMl6S9gEytxwpDoAf">
    <mxGraphModel dx="3050" dy="1489" grid="0" gridSize="10" guides="1" tooltips="1" connect="1" arrows="1" fold="1" page="0" pageScale="1" pageWidth="827" pageHeight="1169" math="0" shadow="0">
      <root>
        <mxCell id="0" />
        <mxCell id="1" parent="0" />
        <mxCell id="YrHZoFb0JxsnsXG9tn5o-1" value="type = struct _IO_FILE {&lt;br&gt;&amp;nbsp;&amp;nbsp;&amp;nbsp; int _flags;&lt;br&gt;&amp;nbsp;&amp;nbsp;&amp;nbsp; char *_IO_read_ptr;&lt;br&gt;&amp;nbsp;&amp;nbsp;&amp;nbsp; char *_IO_read_end;&lt;br&gt;&amp;nbsp;&amp;nbsp;&amp;nbsp; char *_IO_read_base;&lt;br&gt;&amp;nbsp;&amp;nbsp;&amp;nbsp; char *_IO_write_base;&lt;br&gt;&amp;nbsp;&amp;nbsp;&amp;nbsp; char *_IO_write_ptr;&lt;br&gt;&amp;nbsp;&amp;nbsp;&amp;nbsp; char *_IO_write_end;&lt;br&gt;&amp;nbsp;&amp;nbsp;&amp;nbsp; char *_IO_buf_base;&lt;br&gt;&amp;nbsp;&amp;nbsp;&amp;nbsp; char *_IO_buf_end;&lt;br&gt;&amp;nbsp;&amp;nbsp;&amp;nbsp; char *_IO_save_base;&lt;br&gt;&amp;nbsp;&amp;nbsp;&amp;nbsp; char *_IO_backup_base;&lt;br&gt;&amp;nbsp;&amp;nbsp;&amp;nbsp; char *_IO_save_end;&lt;br&gt;&amp;nbsp;&amp;nbsp;&amp;nbsp; struct _IO_marker *_markers;&lt;br&gt;&amp;nbsp;&amp;nbsp;&amp;nbsp; struct _IO_FILE *_chain;&lt;br&gt;&amp;nbsp;&amp;nbsp;&amp;nbsp; int _fileno;&lt;br&gt;&amp;nbsp;&amp;nbsp;&amp;nbsp; int _flags2;&lt;br&gt;&amp;nbsp;&amp;nbsp;&amp;nbsp; __off_t _old_offset;&lt;br&gt;&amp;nbsp;&amp;nbsp;&amp;nbsp; unsigned short _cur_column;&lt;br&gt;&amp;nbsp;&amp;nbsp;&amp;nbsp; signed char _vtable_offset;&lt;br&gt;&amp;nbsp;&amp;nbsp;&amp;nbsp; char _shortbuf[1];&lt;br&gt;&amp;nbsp;&amp;nbsp;&amp;nbsp; _IO_lock_t *_lock;&lt;br&gt;&amp;nbsp;&amp;nbsp;&amp;nbsp; __off64_t _offset;&lt;br&gt;&amp;nbsp;&amp;nbsp;&amp;nbsp; struct _IO_codecvt *_codecvt;&lt;br&gt;&amp;nbsp;&amp;nbsp;&amp;nbsp; struct _IO_wide_data *_wide_data;&lt;br&gt;&amp;nbsp;&amp;nbsp;&amp;nbsp; struct _IO_FILE *_freeres_list;&lt;br&gt;&amp;nbsp;&amp;nbsp;&amp;nbsp; void *_freeres_buf;&lt;br&gt;&amp;nbsp;&amp;nbsp;&amp;nbsp; size_t __pad5;&lt;br&gt;&amp;nbsp;&amp;nbsp;&amp;nbsp; int _mode;&lt;br&gt;&amp;nbsp;&amp;nbsp;&amp;nbsp; char _unused2[20];&lt;br&gt;}&lt;div&gt;&lt;br/&gt;&lt;/div&gt;" style="text;html=1;align=center;verticalAlign=middle;whiteSpace=wrap;rounded=0;fontSize=16;" vertex="1" parent="1">
          <mxGeometry x="-1755" y="-447" width="286" height="646" as="geometry" />
        </mxCell>
        <mxCell id="YrHZoFb0JxsnsXG9tn5o-2" value="_IO_2_1_stdout&lt;br&gt;( type = struct _IO_FILE_plus {&lt;br&gt;&amp;nbsp;&amp;nbsp;&amp;nbsp; _IO_FILE file;&lt;br&gt;&amp;nbsp;&amp;nbsp;&amp;nbsp; const struct _IO_jump_t *vtable;&lt;br&gt;})" style="rounded=1;whiteSpace=wrap;html=1;" vertex="1" parent="1">
          <mxGeometry x="-952" y="-451" width="382" height="176" as="geometry" />
        </mxCell>
        <mxCell id="YrHZoFb0JxsnsXG9tn5o-3" value="pwndbg&amp;gt; ptype _IO_file_jumps&lt;br&gt;type = const struct _IO_jump_t {&lt;br&gt;&amp;nbsp;&amp;nbsp;&amp;nbsp; size_t __dummy;&lt;br&gt;&amp;nbsp;&amp;nbsp;&amp;nbsp; size_t __dummy2;&lt;br&gt;&amp;nbsp;&amp;nbsp;&amp;nbsp; _IO_finish_t __finish;&lt;br&gt;&amp;nbsp;&amp;nbsp;&amp;nbsp; _IO_overflow_t __overflow;&lt;br&gt;&amp;nbsp;&amp;nbsp;&amp;nbsp; _IO_underflow_t __underflow;&lt;br&gt;&amp;nbsp;&amp;nbsp;&amp;nbsp; _IO_underflow_t __uflow;&lt;br&gt;&amp;nbsp;&amp;nbsp;&amp;nbsp; _IO_pbackfail_t __pbackfail;&lt;br&gt;&amp;nbsp;&amp;nbsp;&amp;nbsp; _IO_xsputn_t __xsputn;&lt;br&gt;&amp;nbsp;&amp;nbsp;&amp;nbsp; _IO_xsgetn_t __xsgetn;&lt;br&gt;&amp;nbsp;&amp;nbsp;&amp;nbsp; _IO_seekoff_t __seekoff;&lt;br&gt;&amp;nbsp;&amp;nbsp;&amp;nbsp; _IO_seekpos_t __seekpos;&lt;br&gt;&amp;nbsp;&amp;nbsp;&amp;nbsp; _IO_setbuf_t __setbuf;&lt;br&gt;&amp;nbsp;&amp;nbsp;&amp;nbsp; _IO_sync_t __sync;&lt;br&gt;&amp;nbsp;&amp;nbsp;&amp;nbsp; _IO_doallocate_t __doallocate;&lt;br&gt;&amp;nbsp;&amp;nbsp;&amp;nbsp; _IO_read_t __read;&lt;br&gt;&amp;nbsp;&amp;nbsp;&amp;nbsp; _IO_write_t __write;&lt;br&gt;&amp;nbsp;&amp;nbsp;&amp;nbsp; _IO_seek_t __seek;&lt;br&gt;&amp;nbsp;&amp;nbsp;&amp;nbsp; _IO_close_t __close;&lt;br&gt;&amp;nbsp;&amp;nbsp;&amp;nbsp; _IO_stat_t __stat;&lt;br&gt;&amp;nbsp;&amp;nbsp;&amp;nbsp; _IO_showmanyc_t __showmanyc;&lt;br&gt;&amp;nbsp;&amp;nbsp;&amp;nbsp; _IO_imbue_t __imbue;&lt;br&gt;}&lt;br&gt;pwndbg&amp;gt; &lt;div&gt;&lt;br/&gt;&lt;/div&gt;" style="text;html=1;spacing=5;spacingTop=-20;whiteSpace=wrap;overflow=hidden;rounded=0;" vertex="1" parent="1">
          <mxGeometry x="-1389" y="-440" width="203" height="354" as="geometry" />
        </mxCell>
        <mxCell id="YrHZoFb0JxsnsXG9tn5o-4" value="pwndbg&amp;gt; p &amp;amp;_IO_2_1_stdout_.vtable.__setbuf &lt;br&gt;$44 = (_IO_setbuf_t *) 0x58&lt;br&gt;pwndbg&amp;gt; &lt;div&gt;&lt;br/&gt;&lt;/div&gt;" style="rounded=0;whiteSpace=wrap;html=1;" vertex="1" parent="1">
          <mxGeometry x="-1428" y="3" width="329" height="99" as="geometry" />
        </mxCell>
      </root>
    </mxGraphModel>
  </diagram>
</mxfile>
